<svg version="1.1" viewBox="0.0 0.0 792.1391076115485 147.36220472440945" fill="none" stroke="none" stroke-linecap="square" stroke-miterlimit="10" xmlns:xlink="http://www.w3.org/1999/xlink" xmlns="http://www.w3.org/2000/svg"><clipPath id="p.0"><path d="m0 0l792.1391 0l0 147.3622l-792.1391 0l0 -147.3622z" clip-rule="nonzero"/></clipPath><g clip-path="url(#p.0)"><path fill="#000000" fill-opacity="0.0" d="m0 0l792.1391 0l0 147.3622l-792.1391 0z" fill-rule="evenodd"/><path fill="#b62d69" fill-opacity="0.6115" d="m51.048428 7.906415c-12.777477 0.1688652 -23.387852 3.4242134 -31.831118 9.766046c-8.443268 6.3230686 -12.664902 14.466131 -12.664902 24.429186c0 10.075634 3.7431822 18.012306 11.229546 23.810013c7.4863644 5.797714 18.5189 10.807388 33.09761 15.029022c8.386978 2.5329742 14.250359 5.234825 17.590141 8.10553c3.3585434 2.8707123 5.0378113 6.6701813 5.0378113 11.398415c0 4.615654 -1.7637024 8.302544 -5.291107 11.060677c-3.5086517 2.7581406 -8.640282 4.137207 -15.394894 4.137207c-5.234825 0 -9.981819 -0.65670776 -14.240978 -1.9701004c-4.2403984 -1.332161 -7.598942 -3.0114288 -10.075632 -5.0378113l-2.6174126 -17.47757l-19.081785 0l0 25.667534c5.234826 5.459984 11.773668 9.737907 19.616524 12.833763c7.861622 3.095871 16.66138 4.643799 26.399284 4.643799c13.621807 0 24.59805 -3.039566 32.928745 -9.118729c8.330688 -6.0791473 12.496033 -14.381699 12.496033 -24.907639c0 -10.07563 -3.508644 -18.209312 -10.52594 -24.40104c-6.9985275 -6.1917267 -17.280556 -11.173256 -30.84607 -14.944584c-9.456459 -2.9832878 -16.11726 -5.8070908 -19.982399 -8.471413c-3.8463783 -2.6830788 -5.7695675 -6.107296 -5.7695675 -10.27264c0 -4.5030746 1.8387547 -8.171204 5.516268 -11.004393c3.6962738 -2.8519459 8.921719 -4.2779217 15.676334 -4.2779217c4.61565 0 8.978004 0.5065956 13.087067 1.5197887c4.1090546 1.0131912 7.2330627 2.1952496 9.372025 3.5461712l3.2084427 16.886536l18.490753 0l0 -25.160936c-5.291115 -4.784519 -11.820572 -8.612133 -19.588379 -11.482844c-7.767807 -2.8707113 -16.37994 -4.3060665 -25.8364 -4.3060665z" fill-rule="evenodd"/><path stroke="#000000" stroke-width="1.0" stroke-linejoin="round" stroke-linecap="butt" d="m51.048428 7.906415c-12.777477 0.1688652 -23.387852 3.4242134 -31.831118 9.766046c-8.443268 6.3230686 -12.664902 14.466131 -12.664902 24.429186c0 10.075634 3.7431822 18.012306 11.229546 23.810013c7.4863644 5.797714 18.5189 10.807388 33.09761 15.029022c8.386978 2.5329742 14.250359 5.234825 17.590141 8.10553c3.3585434 2.8707123 5.0378113 6.6701813 5.0378113 11.398415c0 4.615654 -1.7637024 8.302544 -5.291107 11.060677c-3.5086517 2.7581406 -8.640282 4.137207 -15.394894 4.137207c-5.234825 0 -9.981819 -0.65670776 -14.240978 -1.9701004c-4.2403984 -1.332161 -7.598942 -3.0114288 -10.075632 -5.0378113l-2.6174126 -17.47757l-19.081785 0l0 25.667534c5.234826 5.459984 11.773668 9.737907 19.616524 12.833763c7.861622 3.095871 16.66138 4.643799 26.399284 4.643799c13.621807 0 24.59805 -3.039566 32.928745 -9.118729c8.330688 -6.0791473 12.496033 -14.381699 12.496033 -24.907639c0 -10.07563 -3.508644 -18.209312 -10.52594 -24.40104c-6.9985275 -6.1917267 -17.280556 -11.173256 -30.84607 -14.944584c-9.456459 -2.9832878 -16.11726 -5.8070908 -19.982399 -8.471413c-3.8463783 -2.6830788 -5.7695675 -6.107296 -5.7695675 -10.27264c0 -4.5030746 1.8387547 -8.171204 5.516268 -11.004393c3.6962738 -2.8519459 8.921719 -4.2779217 15.676334 -4.2779217c4.61565 0 8.978004 0.5065956 13.087067 1.5197887c4.1090546 1.0131912 7.2330627 2.1952496 9.372025 3.5461712l3.2084427 16.886536l18.490753 0l0 -25.160936c-5.291115 -4.784519 -11.820572 -8.612133 -19.588379 -11.482844c-7.767807 -2.8707113 -16.37994 -4.3060665 -25.8364 -4.3060665z" fill-rule="evenodd"/><path fill="#b62d69" fill-opacity="0.6115" d="m86.08263 7.5380573l0 15.36698l13.533417 2.6193695l0 91.24144l-13.533417 2.6193695l0 15.279671l100.58386 0l0 -34.750328l-19.383347 0l-1.1350555 15.192352l-41.036827 0l0 -36.321953l43.045006 0l0 -19.645283l-43.045006 0l0 -31.956333l40.68757 0l1.1350555 15.192356l19.557983 0l0 -34.83764z" fill-rule="evenodd"/><path stroke="#000000" stroke-width="1.0" stroke-linejoin="round" stroke-linecap="butt" d="m86.08263 7.5380573l0 15.36698l13.533417 2.6193695l0 91.24144l-13.533417 2.6193695l0 15.279671l100.58386 0l0 -34.750328l-19.383347 0l-1.1350555 15.192352l-41.036827 0l0 -36.321953l43.045006 0l0 -19.645283l-43.045006 0l0 -31.956333l40.68757 0l1.1350555 15.192356l19.557983 0l0 -34.83764z" fill-rule="evenodd"/><path fill="#b62d69" fill-opacity="0.6115" d="m233.64871 36.787704l14.319229 44.791252l-29.162323 0l14.319229 -44.791252zm-13.184174 -29.249647l-38.679382 110.537476l-9.080475 1.3096848l0 15.279671l43.30693 0l0 -15.279671l-8.8185425 -1.5716248l5.587982 -17.462471l41.21144 0l5.5880127 17.462471l-8.818558 1.5716248l0 15.279671l43.30693 0l0 -15.279671l-9.080475 -1.3096848l-38.41745 -110.537476z" fill-rule="evenodd"/><path stroke="#000000" stroke-width="1.0" stroke-linejoin="round" stroke-linecap="butt" d="m233.64871 36.787704l14.319229 44.791252l-29.162323 0l14.319229 -44.791252zm-13.184174 -29.249647l-38.679382 110.537476l-9.080475 1.3096848l0 15.279671l43.30693 0l0 -15.279671l-8.8185425 -1.5716248l5.587982 -17.462471l41.21144 0l5.5880127 17.462471l-8.818558 1.5716248l0 15.279671l43.30693 0l0 -15.279671l-9.080475 -1.3096848l-38.41745 -110.537476z" fill-rule="evenodd"/><path fill="#8b8d90" fill-opacity="0.7885" d="m285.19287 7.5380573l0 15.36698l13.533417 2.6193695l0 91.24144l-13.533417 2.6193695l0 15.279671l52.649353 0l0 -15.279671l-13.620728 -2.6193695l0 -19.994537l-2.4447327 -55.79261l0.52386475 -0.08731079l33.877197 93.7735l17.11322 0l34.05185 -94.12275l0.52386475 0.08731079l-2.4447632 56.14186l0 19.994537l-13.533417 2.6193695l0 15.279671l52.649384 0l0 -15.279671l-13.620728 -2.6193695l0 -91.24144l13.620728 -2.6193695l0 -15.36698l-46.97406 0l-32.654846 93.68619l-0.52386475 0l-32.392883 -93.68619z" fill-rule="evenodd"/><path stroke="#000000" stroke-width="1.0" stroke-linejoin="round" stroke-linecap="butt" d="m285.19287 7.5380573l0 15.36698l13.533417 2.6193695l0 91.24144l-13.533417 2.6193695l0 15.279671l52.649353 0l0 -15.279671l-13.620728 -2.6193695l0 -19.994537l-2.4447327 -55.79261l0.52386475 -0.08731079l33.877197 93.7735l17.11322 0l34.05185 -94.12275l0.52386475 0.08731079l-2.4447632 56.14186l0 19.994537l-13.533417 2.6193695l0 15.279671l52.649384 0l0 -15.279671l-13.620728 -2.6193695l0 -91.24144l13.620728 -2.6193695l0 -15.36698l-46.97406 0l-32.654846 93.68619l-0.52386475 0l-32.392883 -93.68619z" fill-rule="evenodd"/><path fill="#8b8d90" fill-opacity="0.7885" d="m434.4094 7.5380573l0 15.36698l13.533417 2.6193695l0 91.24144l-13.533417 2.6193695l0 15.279671l95.607086 0l0 -35.53614l-19.470673 0l-1.2223816 15.978165l-35.885406 0l0 -89.582504l13.620758 -2.6193695l0 -15.36698z" fill-rule="evenodd"/><path stroke="#000000" stroke-width="1.0" stroke-linejoin="round" stroke-linecap="butt" d="m434.4094 7.5380573l0 15.36698l13.533417 2.6193695l0 91.24144l-13.533417 2.6193695l0 15.279671l95.607086 0l0 -35.53614l-19.470673 0l-1.2223816 15.978165l-35.885406 0l0 -89.582504l13.620758 -2.6193695l0 -15.36698z" fill-rule="evenodd"/><path fill="#2794c7" fill-opacity="0.5115" d="m519.9081 7.870078l0 15.366979l13.533447 2.6193714l0 91.24143l-13.533447 2.6193771l0 15.279663l100.58386 0l0 -34.750328l-19.383362 0l-1.1350708 15.192352l-41.036804 0l0 -36.321945l43.045044 0l0 -19.645287l-43.045044 0l0 -31.956331l40.68756 0l1.1350708 15.192354l19.557983 0l0 -34.83764z" fill-rule="evenodd"/><path stroke="#000000" stroke-width="1.0" stroke-linejoin="round" stroke-linecap="butt" d="m519.9081 7.870078l0 15.366979l13.533447 2.6193714l0 91.24143l-13.533447 2.6193771l0 15.279663l100.58386 0l0 -34.750328l-19.383362 0l-1.1350708 15.192352l-41.036804 0l0 -36.321945l43.045044 0l0 -19.645287l-43.045044 0l0 -31.956331l40.68756 0l1.1350708 15.192354l19.557983 0l0 -34.83764z" fill-rule="evenodd"/><path fill="#2794c7" fill-opacity="0.5115" d="m731.48676 4.626888c-12.777466 0.1688652 -23.387878 3.424213 -31.831116 9.766047c-8.443298 6.3230677 -12.664917 14.46613 -12.664917 24.429188c0 10.075634 3.743164 18.012302 11.229553 23.810013c7.486389 5.797714 18.51892 10.807381 33.097595 15.029015c8.386963 2.5329819 14.250366 5.234825 17.590149 8.105537c3.3585205 2.8707123 5.037842 6.6701813 5.037842 11.398415c0 4.615654 -1.7637329 8.302544 -5.2911377 11.060677c-3.508667 2.758133 -8.640259 4.1371994 -15.394897 4.1371994c-5.2348022 0 -9.981812 -0.65670013 -14.240967 -1.9700928c-4.2404175 -1.332161 -7.598938 -3.0114288 -10.075623 -5.037819l-2.6174316 -17.477562l-19.081787 0l0 25.667534c5.2348633 5.459976 11.773682 9.7379 19.616516 12.833763c7.8616333 3.095871 16.661377 4.643799 26.399292 4.643799c13.621826 0 24.598083 -3.0395737 32.928772 -9.118729c8.330688 -6.0791473 12.496033 -14.381699 12.496033 -24.907639c0 -10.07563 -3.508667 -18.209312 -10.52594 -24.40104c-6.998535 -6.1917343 -17.280579 -11.17326 -30.84607 -14.944584c-9.456482 -2.9832878 -16.11731 -5.8070908 -19.982422 -8.471413c-3.8463745 -2.6830826 -5.7695923 -6.107296 -5.7695923 -10.272644c0 -4.5030746 1.8388062 -8.171202 5.5162964 -11.004391c3.696289 -2.8519459 8.921692 -4.2779217 15.676331 -4.2779217c4.6156616 0 8.978027 0.5065956 13.087097 1.5197887c4.109009 1.0131912 7.233032 2.1952496 9.372009 3.5461712l3.208435 16.886534l18.490723 0l0 -25.160934c-5.2910767 -4.784519 -11.820557 -8.612133 -19.588379 -11.482844c-7.767761 -2.8707108 -16.379944 -4.306066 -25.836365 -4.306066z" fill-rule="evenodd"/><path stroke="#000000" stroke-width="1.0" stroke-linejoin="round" stroke-linecap="butt" d="m731.48676 4.626888c-12.777466 0.1688652 -23.387878 3.424213 -31.831116 9.766047c-8.443298 6.3230677 -12.664917 14.46613 -12.664917 24.429188c0 10.075634 3.743164 18.012302 11.229553 23.810013c7.486389 5.797714 18.51892 10.807381 33.097595 15.029015c8.386963 2.5329819 14.250366 5.234825 17.590149 8.105537c3.3585205 2.8707123 5.037842 6.6701813 5.037842 11.398415c0 4.615654 -1.7637329 8.302544 -5.2911377 11.060677c-3.508667 2.758133 -8.640259 4.1371994 -15.394897 4.1371994c-5.2348022 0 -9.981812 -0.65670013 -14.240967 -1.9700928c-4.2404175 -1.332161 -7.598938 -3.0114288 -10.075623 -5.037819l-2.6174316 -17.477562l-19.081787 0l0 25.667534c5.2348633 5.459976 11.773682 9.7379 19.616516 12.833763c7.8616333 3.095871 16.661377 4.643799 26.399292 4.643799c13.621826 0 24.598083 -3.0395737 32.928772 -9.118729c8.330688 -6.0791473 12.496033 -14.381699 12.496033 -24.907639c0 -10.07563 -3.508667 -18.209312 -10.52594 -24.40104c-6.998535 -6.1917343 -17.280579 -11.17326 -30.84607 -14.944584c-9.456482 -2.9832878 -16.11731 -5.8070908 -19.982422 -8.471413c-3.8463745 -2.6830826 -5.7695923 -6.107296 -5.7695923 -10.272644c0 -4.5030746 1.8388062 -8.171202 5.5162964 -11.004391c3.696289 -2.8519459 8.921692 -4.2779217 15.676331 -4.2779217c4.6156616 0 8.978027 0.5065956 13.087097 1.5197887c4.109009 1.0131912 7.233032 2.1952496 9.372009 3.5461712l3.208435 16.886534l18.490723 0l0 -25.160934c-5.2910767 -4.784519 -11.820557 -8.612133 -19.588379 -11.482844c-7.767761 -2.8707108 -16.379944 -4.306066 -25.836365 -4.306066z" fill-rule="evenodd"/><path fill="#2794c7" fill-opacity="0.5115" d="m654.9854 7.906415c-12.777466 0.1688652 -23.387817 3.4242134 -31.831116 9.766046c-8.443237 6.3230686 -12.664856 14.466131 -12.664856 24.429186c0 10.075634 3.743164 18.012306 11.229492 23.810013c7.486389 5.797714 18.51892 10.807388 33.097656 15.029022c8.386963 2.5329742 14.250366 5.234825 17.590149 8.10553c3.3585205 2.8707123 5.037781 6.6701813 5.037781 11.398415c0 4.615654 -1.7636719 8.302544 -5.2910767 11.060677c-3.508667 2.7581406 -8.64032 4.137207 -15.394897 4.137207c-5.2348633 0 -9.981873 -0.65670776 -14.241028 -1.9701004c-4.2403564 -1.332161 -7.598938 -3.0114288 -10.075623 -5.0378113l-2.6173706 -17.47757l-19.081787 0l0 25.667534c5.2348022 5.459984 11.773621 9.737907 19.616516 12.833763c7.8616333 3.095871 16.661377 4.643799 26.399292 4.643799c13.621765 0 24.598022 -3.039566 32.92871 -9.118729c8.330688 -6.0791473 12.496033 -14.381699 12.496033 -24.907639c0 -10.07563 -3.508606 -18.209312 -10.52594 -24.40104c-6.998535 -6.1917267 -17.280518 -11.173256 -30.84607 -14.944584c-9.456421 -2.9832878 -16.117249 -5.8070908 -19.98236 -8.471413c-3.8464355 -2.6830788 -5.7695923 -6.107296 -5.7695923 -10.27264c0 -4.5030746 1.8387451 -8.171204 5.5162354 -11.004393c3.696289 -2.8519459 8.921753 -4.2779217 15.676392 -4.2779217c4.6156006 0 8.977966 0.5065956 13.087036 1.5197887c4.10907 1.0131912 7.2330933 2.1952496 9.372009 3.5461712l3.208435 16.886536l18.490784 0l0 -25.160936c-5.2911377 -4.784519 -11.820557 -8.612133 -19.588379 -11.482844c-7.7678223 -2.8707113 -16.379944 -4.3060665 -25.836426 -4.3060665z" fill-rule="evenodd"/><path stroke="#000000" stroke-width="1.0" stroke-linejoin="round" stroke-linecap="butt" d="m654.9854 7.906415c-12.777466 0.1688652 -23.387817 3.4242134 -31.831116 9.766046c-8.443237 6.3230686 -12.664856 14.466131 -12.664856 24.429186c0 10.075634 3.743164 18.012306 11.229492 23.810013c7.486389 5.797714 18.51892 10.807388 33.097656 15.029022c8.386963 2.5329742 14.250366 5.234825 17.590149 8.10553c3.3585205 2.8707123 5.037781 6.6701813 5.037781 11.398415c0 4.615654 -1.7636719 8.302544 -5.2910767 11.060677c-3.508667 2.7581406 -8.64032 4.137207 -15.394897 4.137207c-5.2348633 0 -9.981873 -0.65670776 -14.241028 -1.9701004c-4.2403564 -1.332161 -7.598938 -3.0114288 -10.075623 -5.0378113l-2.6173706 -17.47757l-19.081787 0l0 25.667534c5.2348022 5.459984 11.773621 9.737907 19.616516 12.833763c7.8616333 3.095871 16.661377 4.643799 26.399292 4.643799c13.621765 0 24.598022 -3.039566 32.92871 -9.118729c8.330688 -6.0791473 12.496033 -14.381699 12.496033 -24.907639c0 -10.07563 -3.508606 -18.209312 -10.52594 -24.40104c-6.998535 -6.1917267 -17.280518 -11.173256 -30.84607 -14.944584c-9.456421 -2.9832878 -16.117249 -5.8070908 -19.98236 -8.471413c-3.8464355 -2.6830788 -5.7695923 -6.107296 -5.7695923 -10.27264c0 -4.5030746 1.8387451 -8.171204 5.5162354 -11.004393c3.696289 -2.8519459 8.921753 -4.2779217 15.676392 -4.2779217c4.6156006 0 8.977966 0.5065956 13.087036 1.5197887c4.10907 1.0131912 7.2330933 2.1952496 9.372009 3.5461712l3.208435 16.886536l18.490784 0l0 -25.160936c-5.2911377 -4.784519 -11.820557 -8.612133 -19.588379 -11.482844c-7.7678223 -2.8707113 -16.379944 -4.3060665 -25.836426 -4.3060665z" fill-rule="evenodd"/></g></svg>